# xmcd CD database file
#
# Track frame offsets:
#	150
#	18192
#	38750
#	50216
#	70006
#	82380
#	101193
#	114520
#	133239
#	151283
#	167212
#	177955
#	189847
#	210430
#	225592
#	240692
#	251588
#	288669
#
# Disc length: 4172 seconds
#
# Revision: 1
# Processed by: cddbd v1.5.2PL0 Copyright (c) Steve Scherf et al.
# Submitted via: CDex 1.83
#
DISCID=00104a12
DTITLE=Gene Krupa - Seven Classic Albums - CD 4
DYEAR=1961
DGENRE=Jazz
TTITLE0=The Galloping Comedians
TTITLE1=American Bolero
TTITLE2=Espana Cani
TTITLE3=Sabre Dance
TTITLE4=Meadowland
TTITLE5=Valse Triste
TTITLE6=Arab Dance
TTITLE7=Ritual Fire Dance
TTITLE8=March
TTITLE9=Poet And Pleasant Overture
TTITLE10=Jumpin' At The Woodside
TTITLE11=It Don't Mean A Thing (If It Ain't Got That Swing)
TTITLE12=Duet
TTITLE13=Night Train
TTITLE14=King Porter Stomp
TTITLE15=Perdido
TTITLE16=Evolution
TTITLE17=Hawaiian War Chant
EXTD=YEAR: 1961
EXTT0=
EXTT1=
EXTT2=
EXTT3=
EXTT4=
EXTT5=
EXTT6=
EXTT7=
EXTT8=
EXTT9=
EXTT10=
EXTT11=
EXTT12=
EXTT13=
EXTT14=
EXTT15=
EXTT16=
EXTT17=
PLAYORDER=
